<?xml version="1.0" encoding="UTF-8" standalone="no"?><!DOCTYPE svg PUBLIC "-//W3C//DTD SVG 1.1//EN" "http://www.w3.org/Graphics/SVG/1.1/DTD/svg11.dtd"><svg width="100%" height="100%" viewBox="0 0 77 78" version="1.1" xmlns="http://www.w3.org/2000/svg" xmlns:xlink="http://www.w3.org/1999/xlink" xml:space="preserve" xmlns:serif="http://www.serif.com/" style="fill-rule:evenodd;clip-rule:evenodd;stroke-linejoin:round;stroke-miterlimit:2;"><g id="g3019"><path id="path14" d="M0.883,6.245c0,-3.015 2.507,-5.462 5.599,-5.462l64.57,0c3.092,0 5.599,2.447 5.599,5.462l-0,65.324c-0,3.017 -2.507,5.462 -5.599,5.462l-64.57,0c-3.092,0 -5.599,-2.445 -5.599,-5.462l0,-65.324Z" style="fill:#069;fill-rule:nonzero;"/><path id="path28" d="M23.851,64.611l-0,-34.43l-11.444,-0l-0,34.43l11.444,-0Zm-5.722,-39.131c3.99,-0 6.474,-2.644 6.474,-5.948c-0.074,-3.379 -2.484,-5.949 -6.399,-5.949c-3.914,-0 -6.474,2.57 -6.474,5.949c0,3.304 2.484,5.948 6.324,5.948l0.075,-0Z" style="fill:#fff;"/><path id="path30" d="M30.183,64.611l11.444,-0l-0,-19.227c-0,-1.029 0.074,-2.057 0.376,-2.793c0.828,-2.056 2.711,-4.185 5.872,-4.185c4.141,-0 5.798,3.157 5.798,7.786l-0,18.419l11.443,-0l-0,-19.742c-0,-10.575 -5.646,-15.496 -13.175,-15.496c-6.174,-0 -8.884,3.451 -10.39,5.801l0.076,-0l0,-4.993l-11.444,-0c0.15,3.23 0,34.43 0,34.43l0,-0Z" style="fill:#fff;"/></g></svg>